<svg xmlns="http://www.w3.org/2000/svg" xmlns:xlink="http://www.w3.org/1999/xlink" width="500" zoomAndPan="magnify" viewBox="0 0 375 374.999991" height="500" preserveAspectRatio="xMidYMid meet" version="1.0"><defs><g/><clipPath id="bf2b1b92ea"><path d="M 112.878906 140.4375 L 262.867188 140.4375 L 262.867188 234.9375 L 112.878906 234.9375 Z M 112.878906 140.4375 " clip-rule="nonzero"/></clipPath></defs><g clip-path="url(#bf2b1b92ea)"><path fill="#ffd700" d="M 261.308594 153.71875 C 260.351562 154.664062 255.625 158.183594 255.183594 158.507812 C 258.035156 155.941406 260.511719 153.277344 261.382812 152.292969 C 263.007812 150.46875 262.699219 148.140625 261.695312 149.304688 C 261.214844 149.863281 259.5625 151.25 257.96875 152.550781 C 258.574219 151.578125 259.03125 150.671875 259.296875 149.925781 C 260.378906 146.898438 257.753906 146.199219 257.519531 147.054688 C 257.375 147.59375 255.597656 150.109375 254.304688 151.890625 C 255.269531 148.808594 255.273438 145.902344 254.890625 145.035156 C 254.273438 143.636719 253.304688 145.851562 253.304688 145.851562 C 250.523438 157.84375 229.410156 171.117188 225.121094 172.632812 C 220.828125 174.148438 218.625 174.613281 216.074219 178.222656 C 213.523438 181.832031 205.054688 187.65625 200.765625 189.75 C 198.449219 190.882812 195.726562 192.691406 193.710938 194.121094 C 193.570312 193.871094 193.378906 193.613281 193.125 193.347656 C 193.125 193.347656 193.683594 191.605469 191.605469 189.871094 C 191.625 189.800781 191.925781 188.507812 190.636719 187.113281 C 190.636719 187.113281 190.695312 184.859375 188.652344 183.449219 C 188.652344 183.449219 188.652344 183.449219 188.652344 183.445312 C 188.679688 183.378906 189.03125 182.382812 187.601562 181.265625 C 187.601562 181.265625 187.691406 179.726562 186.171875 178.488281 C 186.171875 178.488281 186.230469 176.386719 184.417969 175.453125 C 184.425781 175.359375 184.511719 173.300781 182.671875 173.050781 C 182.671875 173.050781 183.394531 171.703125 181.511719 171.410156 C 181.511719 171.410156 182.207031 169.605469 181.222656 169.3125 C 180.769531 169.179688 180.230469 169.292969 179.65625 169.519531 C 179.65625 169.519531 180.582031 167.277344 179.945312 166.808594 C 179.582031 166.546875 178.277344 166.886719 177.035156 167.421875 C 177.125 167.320312 179.125 164.988281 178.84375 164.25 C 178.65625 163.761719 177.601562 163.554688 176.132812 164.117188 C 176.132812 164.117188 177.046875 160.699219 176.988281 159.941406 C 176.945312 159.394531 175.882812 158.757812 174.503906 160.125 C 174.503906 160.125 175.769531 156.039062 175.25 154.351562 C 174.824219 152.980469 174.132812 152.265625 172.558594 154.984375 C 172.570312 154.875 172.925781 151.074219 172.8125 149.984375 C 172.714844 149.058594 171.394531 147.761719 169.671875 152.6875 C 169.667969 152.550781 169.601562 148.050781 169.671875 147.191406 C 169.730469 146.429688 168.511719 144.96875 167.015625 149.523438 L 167.011719 149.523438 C 167.011719 149.523438 167.941406 145.210938 167.359375 143.929688 C 167 143.128906 165.964844 142.242188 165.300781 143.71875 C 165.015625 142.371094 164.585938 141.085938 164.171875 140.609375 C 163.417969 139.738281 162.199219 142.472656 162.199219 142.472656 C 160.34375 148.121094 160.578125 166.402344 161.386719 168.730469 C 162.199219 171.058594 162.953125 172.109375 163.339844 174.730469 C 163.722656 177.347656 164.289062 178.6875 166.261719 181.25 C 168.230469 183.8125 171.132812 188.179688 173.042969 192.835938 C 174.300781 195.902344 174.152344 198.136719 173.777344 199.488281 L 173.738281 199.472656 C 170.667969 199.007812 166.953125 200.054688 164.519531 200.578125 C 162.082031 201.105469 158.199219 200.871094 154.71875 200.296875 C 151.238281 199.726562 144.046875 200.171875 141.671875 200.289062 C 139.292969 200.40625 132.449219 199.53125 129.957031 198.132812 C 127.460938 196.738281 125.546875 197.550781 125.546875 197.550781 C 125.546875 197.550781 124.753906 197.804688 123.933594 198.390625 C 123.933594 198.390625 122.824219 198.132812 121.9375 198.910156 C 121.628906 199.179688 121.234375 199.488281 120.792969 199.789062 C 120.792969 199.789062 120.792969 199.789062 120.789062 199.792969 C 119.953125 200.367188 118.925781 200.90625 117.914062 201.085938 C 116.367188 201.355469 113.96875 201.703125 113.390625 202.171875 C 112.808594 202.636719 112.269531 204.304688 114.511719 203.800781 C 116.753906 203.296875 117.566406 203.71875 118.574219 203.898438 C 118.945312 203.960938 119.558594 204.078125 120.265625 204.164062 C 120.902344 204.242188 121.613281 204.300781 122.300781 204.289062 C 122.289062 204.265625 122.277344 204.242188 122.269531 204.21875 C 122.324219 204.242188 122.378906 204.261719 122.429688 204.289062 C 122.984375 204.519531 123.460938 204.65625 123.460938 204.65625 C 123.460938 204.65625 127.230469 205.996094 130.824219 205.820312 C 134.421875 205.644531 137.554688 205.078125 138.65625 205.246094 C 139.757812 205.414062 141.671875 205.546875 144.628906 205.246094 C 147.585938 204.945312 151.761719 205.269531 153.792969 205.835938 C 155.820312 206.402344 164.230469 209.429688 165.910156 209.488281 C 167.59375 209.546875 171.015625 209.488281 172.871094 210.363281 C 174.726562 211.234375 175.480469 212.457031 177.046875 214.203125 C 178.613281 215.949219 186.789062 222.761719 190.328125 224.917969 C 193.402344 226.792969 206.140625 229.8125 214.210938 229.566406 C 215.5 230.277344 217.179688 230.894531 218.945312 230.871094 C 221.09375 232.09375 227.425781 235.496094 230.339844 234.875 C 230.339844 234.875 230.78125 234.507812 230.339844 233.828125 C 230.90625 233.828125 231.488281 233.738281 231.675781 233.417969 C 231.777344 233.238281 231.632812 232.960938 231.320312 232.628906 C 232.011719 232.542969 232.777344 232.339844 232.777344 231.875 C 232.777344 231.753906 232.738281 231.609375 232.667969 231.449219 C 232.417969 230.898438 231.773438 230.191406 230.9375 229.597656 C 231.90625 229.617188 232.695312 229.484375 233.21875 229.316406 C 233.59375 229.195312 233.824219 229.054688 233.878906 228.933594 C 233.96875 228.726562 233.878906 228.382812 233.738281 228.046875 C 234.4375 227.882812 235 227.617188 235.148438 227.179688 C 235.441406 226.328125 233.539062 225.796875 232.941406 225.714844 C 230.09375 225.324219 227.390625 224.679688 224.6875 223.660156 C 222.054688 222.675781 219.289062 221.539062 217.058594 219.78125 C 215.535156 218.574219 214.167969 217.300781 212.890625 216.003906 C 213.242188 215.632812 213.535156 215.183594 213.773438 214.707031 C 214.53125 213.199219 214.769531 211.460938 214.78125 211.382812 C 217.070312 210.515625 218.179688 206.742188 218.214844 206.621094 C 218.21875 206.617188 218.21875 206.617188 218.21875 206.617188 C 222.296875 205.917969 222.960938 202.753906 222.960938 202.753906 C 227.757812 202.355469 226.210938 199.632812 226.210938 199.632812 C 227.609375 199.960938 228.445312 199.597656 229.082031 199.453125 C 230.105469 199.222656 228.753906 196.679688 228.753906 196.679688 L 228.769531 196.613281 C 229.792969 196.835938 230.660156 196.78125 231.210938 196.679688 C 232.332031 196.46875 231.25 193.613281 231.210938 193.511719 C 235.15625 194.808594 234.285156 191.003906 234.285156 191.003906 C 237.980469 190.699219 236.617188 187.324219 236.617188 187.324219 C 239.515625 186.632812 239.3125 184.59375 239.3125 184.59375 C 242.515625 183.820312 242.207031 181.589844 242.207031 181.589844 C 245.039062 181.089844 244.8125 179.875 244.625 179.441406 C 249.867188 178.644531 247.777344 175.953125 247.777344 175.953125 C 250.839844 174.949219 252.644531 173.59375 252.957031 173.050781 C 253.371094 172.335938 252.164062 171.753906 251.566406 171.523438 C 255.878906 169.800781 257.703125 167.574219 257.753906 166.71875 C 257.828125 165.371094 255.246094 166.160156 255.152344 166.1875 C 258.945312 163.753906 260.070312 161.28125 260.070312 160.601562 C 260.070312 159.5 257.5625 160.554688 257.460938 160.601562 C 259.046875 159.164062 260.355469 157.839844 261.308594 156.988281 C 264.246094 154.351562 262.3125 152.71875 261.308594 153.71875 " fill-opacity="1" fill-rule="nonzero"/></g><g fill="#000000" fill-opacity="1"><g transform="translate(187.499992, 228.39952)"><g/></g></g></svg>