<svg xmlns="http://www.w3.org/2000/svg" xmlns:xlink="http://www.w3.org/1999/xlink" width="500" zoomAndPan="magnify" viewBox="0 0 375 374.999991" height="500" preserveAspectRatio="xMidYMid meet" version="1.0"><defs><filter x="0%" y="0%" width="100%" height="100%" id="afd42e9a47"><feColorMatrix values="0 0 0 0 1 0 0 0 0 1 0 0 0 0 1 0 0 0 1 0" color-interpolation-filters="sRGB"/></filter><g/><mask id="d0c04ad10c"><g filter="url(#afd42e9a47)"><rect x="-37.5" width="450" fill="#000000" y="-37.499999" height="449.999989" fill-opacity="0.1569"/></g></mask><clipPath id="4fc95bf6e2"><path d="M 0.84375 0.617188 L 369.792969 0.617188 L 369.792969 232.367188 L 0.84375 232.367188 Z M 0.84375 0.617188 " clip-rule="nonzero"/></clipPath><clipPath id="1f203ad164"><rect x="0" width="371" y="0" height="234"/></clipPath><clipPath id="3ef5a48fa1"><path d="M 16.894531 119.722656 L 166.882812 119.722656 L 166.882812 214.222656 L 16.894531 214.222656 Z M 16.894531 119.722656 " clip-rule="nonzero"/></clipPath></defs><g mask="url(#d0c04ad10c)"><g transform="matrix(1, 0, 0, 1, 2, 71)"><g clip-path="url(#1f203ad164)"><g clip-path="url(#4fc95bf6e2)"><path fill="#ffd700" d="M 365.964844 33.183594 C 363.609375 35.507812 351.984375 44.132812 350.898438 44.929688 C 357.917969 38.632812 364 32.101562 366.152344 29.695312 C 370.148438 25.214844 369.386719 19.503906 366.917969 22.359375 C 365.738281 23.726562 361.671875 27.132812 357.753906 30.324219 C 359.234375 27.9375 360.359375 25.71875 361.019531 23.882812 C 363.679688 16.457031 357.214844 14.746094 356.644531 16.84375 C 356.285156 18.164062 351.914062 24.332031 348.738281 28.707031 C 351.109375 21.148438 351.121094 14.019531 350.175781 11.890625 C 348.65625 8.464844 346.277344 13.890625 346.277344 13.890625 C 339.433594 43.304688 287.5 75.859375 276.945312 79.570312 C 266.390625 83.285156 260.96875 84.425781 254.691406 93.28125 C 248.414062 102.132812 227.585938 116.410156 217.03125 121.550781 C 211.335938 124.328125 204.636719 128.765625 199.683594 132.265625 C 199.335938 131.652344 198.859375 131.019531 198.234375 130.371094 C 198.234375 130.371094 199.613281 126.097656 194.503906 121.847656 C 194.550781 121.675781 195.285156 118.507812 192.113281 115.082031 C 192.113281 115.082031 192.265625 109.558594 187.238281 106.09375 C 187.238281 106.09375 187.238281 106.09375 187.238281 106.089844 C 187.304688 105.929688 188.167969 103.484375 184.648438 100.742188 C 184.648438 100.742188 184.871094 96.96875 181.132812 93.933594 C 181.132812 93.933594 181.28125 88.773438 176.824219 86.480469 C 176.835938 86.257812 177.050781 81.203125 172.523438 80.597656 C 172.523438 80.597656 174.304688 77.292969 169.667969 76.574219 C 169.667969 76.574219 171.382812 72.148438 168.957031 71.433594 C 167.84375 71.105469 166.519531 71.382812 165.109375 71.9375 C 165.109375 71.9375 167.386719 66.433594 165.816406 65.292969 C 164.921875 64.640625 161.710938 65.476562 158.660156 66.789062 C 158.875 66.542969 163.800781 60.828125 163.105469 59.011719 C 162.644531 57.820312 160.050781 57.304688 156.433594 58.683594 C 156.433594 58.683594 158.683594 50.300781 158.539062 48.441406 C 158.4375 47.105469 155.820312 45.546875 152.433594 48.894531 C 152.433594 48.894531 155.546875 38.878906 154.261719 34.738281 C 153.222656 31.378906 151.519531 29.621094 147.648438 36.292969 C 147.675781 36.027344 148.550781 26.703125 148.269531 24.027344 C 148.03125 21.753906 144.785156 18.574219 140.542969 30.660156 C 140.539062 30.324219 140.375 19.28125 140.542969 17.175781 C 140.6875 15.3125 137.691406 11.730469 134.011719 22.894531 L 134.003906 22.894531 C 134.003906 22.894531 136.285156 12.320312 134.859375 9.179688 C 133.972656 7.21875 131.421875 5.042969 129.792969 8.660156 C 129.085938 5.351562 128.03125 2.210938 127.015625 1.039062 C 125.160156 -1.101562 122.164062 5.609375 122.164062 5.609375 C 117.597656 19.460938 118.171875 64.292969 120.167969 70.003906 C 122.164062 75.714844 124.019531 78.285156 124.96875 84.710938 C 125.914062 91.136719 127.300781 94.421875 132.152344 100.703125 C 137 106.984375 144.136719 117.695312 148.835938 129.117188 C 151.929688 136.636719 151.570312 142.117188 150.640625 145.429688 L 150.550781 145.394531 C 142.992188 144.25 133.863281 146.820312 127.871094 148.105469 C 121.878906 149.390625 112.324219 148.824219 103.761719 147.417969 C 95.203125 146.015625 77.511719 147.109375 71.664062 147.394531 C 65.816406 147.679688 48.980469 145.535156 42.847656 142.109375 C 36.710938 138.683594 32.003906 140.679688 32.003906 140.679688 C 32.003906 140.679688 30.046875 141.296875 28.03125 142.738281 C 28.03125 142.738281 25.300781 142.109375 23.117188 144.011719 C 22.359375 144.675781 21.394531 145.433594 20.304688 146.171875 C 20.304688 146.171875 20.304688 146.171875 20.296875 146.179688 C 18.238281 147.582031 15.710938 148.910156 13.222656 149.347656 C 9.421875 150.007812 3.519531 150.863281 2.09375 152.007812 C 0.664062 153.148438 -0.664062 157.246094 4.855469 156.007812 C 10.367188 154.773438 12.367188 155.800781 14.84375 156.242188 C 15.765625 156.398438 17.273438 156.683594 19.007812 156.898438 C 20.570312 157.089844 22.320312 157.234375 24.011719 157.207031 C 23.984375 157.148438 23.960938 157.085938 23.9375 157.027344 C 24.074219 157.085938 24.203125 157.140625 24.335938 157.199219 C 25.695312 157.773438 26.871094 158.105469 26.871094 158.105469 C 26.871094 158.105469 36.144531 161.386719 44.984375 160.957031 C 53.832031 160.53125 61.535156 159.144531 64.246094 159.546875 C 66.957031 159.957031 71.664062 160.285156 78.941406 159.546875 C 86.21875 158.816406 96.488281 159.605469 101.480469 160.996094 C 106.472656 162.386719 127.15625 169.8125 131.292969 169.953125 C 135.433594 170.097656 143.847656 169.953125 148.414062 172.097656 C 152.976562 174.238281 154.832031 177.238281 158.683594 181.519531 C 162.535156 185.800781 182.652344 202.507812 191.355469 207.792969 C 198.921875 212.390625 230.257812 219.796875 250.109375 219.195312 C 253.28125 220.933594 257.40625 222.453125 261.753906 222.390625 C 267.039062 225.386719 282.617188 233.738281 289.785156 232.207031 C 289.785156 232.207031 290.875 231.3125 289.78125 229.644531 C 291.183594 229.644531 292.605469 229.421875 293.066406 228.636719 C 293.324219 228.195312 292.964844 227.515625 292.195312 226.707031 C 293.894531 226.488281 295.777344 225.992188 295.777344 224.859375 C 295.777344 224.554688 295.683594 224.203125 295.507812 223.8125 C 294.898438 222.464844 293.304688 220.722656 291.25 219.273438 C 293.636719 219.3125 295.582031 218.988281 296.863281 218.578125 C 297.785156 218.285156 298.355469 217.9375 298.488281 217.640625 C 298.710938 217.136719 298.496094 216.292969 298.144531 215.46875 C 299.867188 215.066406 301.25 214.410156 301.613281 213.34375 C 302.332031 211.25 297.65625 209.945312 296.183594 209.746094 C 289.175781 208.792969 282.527344 207.203125 275.878906 204.710938 C 269.402344 202.292969 262.59375 199.511719 257.117188 195.191406 C 253.367188 192.238281 250.003906 189.113281 246.859375 185.933594 C 247.722656 185.027344 248.441406 183.917969 249.03125 182.753906 C 250.898438 179.050781 251.484375 174.792969 251.507812 174.605469 C 257.140625 172.472656 259.871094 163.21875 259.957031 162.917969 C 259.964844 162.910156 259.964844 162.910156 259.964844 162.910156 C 269.996094 161.203125 271.628906 153.441406 271.628906 153.441406 C 283.4375 152.464844 279.628906 145.789062 279.628906 145.789062 C 283.070312 146.59375 285.125 145.703125 286.6875 145.347656 C 289.203125 144.78125 285.886719 138.539062 285.886719 138.539062 L 285.921875 138.382812 C 288.4375 138.921875 290.578125 138.792969 291.925781 138.539062 C 294.683594 138.027344 292.023438 131.019531 291.925781 130.769531 C 301.632812 133.949219 299.492188 124.621094 299.492188 124.621094 C 308.582031 123.875 305.226562 115.597656 305.226562 115.597656 C 312.359375 113.902344 311.859375 108.90625 311.859375 108.90625 C 319.730469 107.003906 318.980469 101.53125 318.980469 101.53125 C 325.945312 100.308594 325.382812 97.335938 324.925781 96.265625 C 337.820312 94.316406 332.679688 87.707031 332.679688 87.707031 C 340.214844 85.253906 344.648438 81.925781 345.421875 80.597656 C 346.4375 78.839844 343.46875 77.417969 342.003906 76.851562 C 352.613281 72.625 357.09375 67.164062 357.214844 65.0625 C 357.398438 61.757812 351.046875 63.695312 350.824219 63.761719 C 360.15625 57.792969 362.921875 51.730469 362.921875 50.066406 C 362.921875 47.367188 356.753906 49.953125 356.496094 50.0625 C 360.402344 46.542969 363.621094 43.296875 365.964844 41.207031 C 373.191406 34.738281 368.433594 30.738281 365.964844 33.183594 " fill-opacity="1" fill-rule="nonzero"/></g></g></g></g><path stroke-linecap="butt" transform="matrix(0.000000000000000046, 0.74643, -0.75, 0.000000000000000046, 181.268988, 141.154474)" fill="none" stroke-linejoin="miter" d="M 0.00237942 1.499275 L 98.471132 1.499275 " stroke="#000000" stroke-width="3" stroke-opacity="1" stroke-miterlimit="4"/><g clip-path="url(#3ef5a48fa1)"><path fill="#ffd700" d="M 165.324219 133.003906 C 164.367188 133.949219 159.640625 137.464844 159.199219 137.792969 C 162.054688 135.226562 164.527344 132.5625 165.398438 131.578125 C 167.023438 129.753906 166.714844 127.425781 165.710938 128.589844 C 165.230469 129.144531 163.578125 130.535156 161.984375 131.835938 C 162.589844 130.863281 163.046875 129.957031 163.3125 129.210938 C 164.394531 126.183594 161.769531 125.484375 161.535156 126.339844 C 161.390625 126.878906 159.613281 129.394531 158.320312 131.175781 C 159.285156 128.09375 159.289062 125.1875 158.90625 124.320312 C 158.289062 122.921875 157.320312 125.136719 157.320312 125.136719 C 154.539062 137.128906 133.429688 150.402344 129.136719 151.917969 C 124.84375 153.433594 122.640625 153.898438 120.089844 157.507812 C 117.539062 161.117188 109.070312 166.9375 104.78125 169.035156 C 102.464844 170.167969 99.742188 171.976562 97.726562 173.402344 C 97.585938 173.15625 97.394531 172.898438 97.140625 172.632812 C 97.140625 172.632812 97.699219 170.890625 95.621094 169.15625 C 95.640625 169.085938 95.941406 167.792969 94.652344 166.398438 C 94.652344 166.398438 94.710938 164.144531 92.667969 162.734375 C 92.667969 162.734375 92.667969 162.734375 92.667969 162.730469 C 92.695312 162.664062 93.046875 161.667969 91.617188 160.550781 C 91.617188 160.550781 91.707031 159.011719 90.1875 157.773438 C 90.1875 157.773438 90.246094 155.671875 88.4375 154.734375 C 88.441406 154.644531 88.527344 152.585938 86.6875 152.335938 C 86.6875 152.335938 87.410156 150.988281 85.527344 150.695312 C 85.527344 150.695312 86.222656 148.890625 85.238281 148.597656 C 84.785156 148.464844 84.246094 148.578125 83.671875 148.804688 C 83.671875 148.804688 84.597656 146.5625 83.960938 146.09375 C 83.597656 145.832031 82.292969 146.171875 81.050781 146.707031 C 81.140625 146.605469 83.140625 144.273438 82.859375 143.535156 C 82.671875 143.046875 81.617188 142.839844 80.148438 143.402344 C 80.148438 143.402344 81.0625 139.984375 81.003906 139.226562 C 80.960938 138.679688 79.898438 138.042969 78.519531 139.410156 C 78.519531 139.410156 79.785156 135.324219 79.265625 133.636719 C 78.84375 132.265625 78.148438 131.550781 76.574219 134.269531 C 76.585938 134.160156 76.941406 130.359375 76.828125 129.269531 C 76.730469 128.34375 75.410156 127.046875 73.6875 131.972656 C 73.683594 131.835938 73.617188 127.335938 73.6875 126.476562 C 73.746094 125.714844 72.527344 124.253906 71.03125 128.804688 L 71.027344 128.804688 C 71.027344 128.804688 71.957031 124.496094 71.375 123.214844 C 71.015625 122.414062 69.980469 121.527344 69.316406 123.003906 C 69.03125 121.652344 68.601562 120.371094 68.1875 119.894531 C 67.433594 119.023438 66.214844 121.757812 66.214844 121.757812 C 64.359375 127.40625 64.59375 145.6875 65.402344 148.015625 C 66.214844 150.34375 66.96875 151.394531 67.355469 154.015625 C 67.738281 156.632812 68.304688 157.972656 70.277344 160.535156 C 72.246094 163.097656 75.148438 167.464844 77.058594 172.121094 C 78.316406 175.1875 78.167969 177.421875 77.792969 178.773438 L 77.757812 178.757812 C 74.683594 178.292969 70.972656 179.339844 68.535156 179.863281 C 66.097656 180.390625 62.214844 180.15625 58.734375 179.582031 C 55.253906 179.011719 48.066406 179.457031 45.6875 179.574219 C 43.308594 179.691406 36.464844 178.816406 33.972656 177.417969 C 31.476562 176.023438 29.5625 176.835938 29.5625 176.835938 C 29.5625 176.835938 28.769531 177.089844 27.949219 177.675781 C 27.949219 177.675781 26.839844 177.417969 25.953125 178.195312 C 25.644531 178.464844 25.25 178.773438 24.808594 179.074219 C 24.808594 179.074219 24.808594 179.074219 24.804688 179.078125 C 23.96875 179.652344 22.941406 180.191406 21.929688 180.371094 C 20.382812 180.640625 17.984375 180.988281 17.40625 181.453125 C 16.824219 181.921875 16.285156 183.589844 18.527344 183.085938 C 20.769531 182.582031 21.582031 183 22.589844 183.179688 C 22.960938 183.246094 23.574219 183.359375 24.28125 183.449219 C 24.917969 183.527344 25.628906 183.585938 26.316406 183.574219 C 26.304688 183.550781 26.292969 183.527344 26.285156 183.503906 C 26.339844 183.527344 26.394531 183.546875 26.445312 183.574219 C 27 183.804688 27.476562 183.941406 27.476562 183.941406 C 27.476562 183.941406 31.246094 185.28125 34.839844 185.105469 C 38.4375 184.929688 41.570312 184.363281 42.671875 184.53125 C 43.773438 184.695312 45.6875 184.832031 48.644531 184.53125 C 51.601562 184.230469 55.777344 184.554688 57.808594 185.121094 C 59.835938 185.6875 68.246094 188.714844 69.925781 188.773438 C 71.609375 188.832031 75.03125 188.773438 76.886719 189.644531 C 78.742188 190.519531 79.496094 191.742188 81.0625 193.488281 C 82.628906 195.234375 90.804688 202.046875 94.34375 204.203125 C 97.417969 206.078125 110.15625 209.097656 118.226562 208.851562 C 119.515625 209.5625 121.195312 210.179688 122.960938 210.15625 C 125.109375 211.378906 131.441406 214.78125 134.355469 214.15625 C 134.355469 214.15625 134.796875 213.792969 134.355469 213.113281 C 134.925781 213.113281 135.503906 213.019531 135.691406 212.703125 C 135.796875 212.523438 135.648438 212.246094 135.335938 211.914062 C 136.027344 211.828125 136.792969 211.625 136.792969 211.160156 C 136.792969 211.039062 136.753906 210.894531 136.683594 210.734375 C 136.433594 210.183594 135.789062 209.476562 134.953125 208.882812 C 135.921875 208.898438 136.710938 208.769531 137.234375 208.601562 C 137.609375 208.480469 137.839844 208.339844 137.894531 208.21875 C 137.984375 208.011719 137.898438 207.667969 137.753906 207.332031 C 138.453125 207.167969 139.015625 206.902344 139.164062 206.464844 C 139.457031 205.613281 137.558594 205.078125 136.957031 205 C 134.109375 204.609375 131.40625 203.960938 128.703125 202.945312 C 126.070312 201.960938 123.304688 200.824219 121.074219 199.0625 C 119.550781 197.859375 118.183594 196.585938 116.90625 195.289062 C 117.257812 194.917969 117.550781 194.46875 117.789062 193.992188 C 118.546875 192.484375 118.785156 190.746094 118.796875 190.667969 C 121.085938 189.800781 122.195312 186.027344 122.230469 185.902344 C 122.234375 185.902344 122.234375 185.902344 122.234375 185.902344 C 126.3125 185.203125 126.976562 182.039062 126.976562 182.039062 C 131.773438 181.640625 130.226562 178.917969 130.226562 178.917969 C 131.625 179.246094 132.460938 178.882812 133.097656 178.738281 C 134.121094 178.507812 132.773438 175.964844 132.773438 175.964844 L 132.785156 175.898438 C 133.808594 176.121094 134.679688 176.066406 135.226562 175.964844 C 136.347656 175.753906 135.265625 172.898438 135.226562 172.792969 C 139.171875 174.089844 138.300781 170.289062 138.300781 170.289062 C 141.996094 169.984375 140.632812 166.609375 140.632812 166.609375 C 143.535156 165.917969 143.328125 163.878906 143.328125 163.878906 C 146.53125 163.105469 146.222656 160.871094 146.222656 160.871094 C 149.054688 160.375 148.828125 159.160156 148.640625 158.726562 C 153.882812 157.929688 151.792969 155.234375 151.792969 155.234375 C 154.855469 154.234375 156.660156 152.878906 156.972656 152.335938 C 157.386719 151.621094 156.179688 151.039062 155.582031 150.808594 C 159.894531 149.085938 161.71875 146.859375 161.769531 146.003906 C 161.84375 144.65625 159.261719 145.445312 159.167969 145.472656 C 162.960938 143.039062 164.085938 140.566406 164.085938 139.886719 C 164.085938 138.785156 161.582031 139.839844 161.476562 139.886719 C 163.0625 138.449219 164.371094 137.125 165.324219 136.273438 C 168.261719 133.636719 166.328125 132.003906 165.324219 133.003906 " fill-opacity="1" fill-rule="nonzero"/></g><g fill="#000000" fill-opacity="1"><g transform="translate(193.586008, 173.810393)"><g><path d="M 14.953125 -20 C 14.910156 -21 14.78125 -22.046875 14.5625 -23.140625 C 14.34375 -24.242188 14.097656 -25.273438 13.828125 -26.234375 L 15.46875 -26.84375 C 15.9375 -26.113281 16.410156 -25.269531 16.890625 -24.3125 C 17.367188 -23.363281 17.742188 -22.492188 18.015625 -21.703125 Z M 27.359375 -2.515625 C 27.210938 -3.179688 26.972656 -3.863281 26.640625 -4.5625 C 26.316406 -5.269531 25.988281 -5.894531 25.65625 -6.4375 L 26.765625 -7.046875 C 27.160156 -6.660156 27.5625 -6.234375 27.96875 -5.765625 C 28.375 -5.304688 28.722656 -4.828125 29.015625 -4.328125 C 29.109375 -5.304688 29.175781 -6.316406 29.21875 -7.359375 L 22.375 -7.359375 L 22.375 -6.671875 L 19.046875 -6.671875 L 19.046875 -18.046875 L 16.828125 -16.390625 L 13.515625 -16.390625 C 13.515625 -15.203125 13.523438 -14.015625 13.546875 -12.828125 C 13.578125 -11.648438 13.640625 -10.507812 13.734375 -9.40625 C 14.046875 -10.40625 14.296875 -11.410156 14.484375 -12.421875 C 14.679688 -13.429688 14.835938 -14.390625 14.953125 -15.296875 L 17.984375 -14.375 C 17.078125 -10.71875 15.851562 -7.550781 14.3125 -4.875 C 14.445312 -4.1875 14.585938 -3.585938 14.734375 -3.078125 C 14.878906 -2.566406 15.019531 -2.3125 15.15625 -2.3125 C 15.25 -2.3125 15.335938 -2.421875 15.421875 -2.640625 C 15.515625 -2.859375 15.609375 -3.15625 15.703125 -3.53125 C 15.796875 -3.90625 15.890625 -4.347656 15.984375 -4.859375 C 16.085938 -5.367188 16.195312 -5.90625 16.3125 -6.46875 L 18.046875 -5.75 C 17.867188 -4.800781 17.710938 -3.863281 17.578125 -2.9375 C 17.441406 -2.019531 17.363281 -1.144531 17.34375 -0.3125 C 17.8125 -1.0625 18.175781 -1.910156 18.4375 -2.859375 C 18.707031 -3.816406 18.84375 -4.769531 18.84375 -5.71875 L 20.375 -5.75 C 20.4375 -5.320312 20.484375 -4.832031 20.515625 -4.28125 C 20.554688 -3.738281 20.578125 -3.160156 20.578125 -2.546875 C 20.578125 -1.640625 20.53125 -0.742188 20.4375 0.140625 C 20.34375 1.023438 20.195312 1.757812 20 2.34375 L 17.34375 0.515625 C 17.34375 0.898438 17.375 1.257812 17.4375 1.59375 C 17.03125 2.125 16.5 2.390625 15.84375 2.390625 C 15.59375 2.390625 15.300781 2.335938 14.96875 2.234375 C 14.632812 2.128906 14.296875 1.925781 13.953125 1.625 C 13.617188 1.332031 13.285156 0.929688 12.953125 0.421875 C 12.628906 -0.0859375 12.332031 -0.75 12.0625 -1.5625 C 11.644531 -1.039062 11.226562 -0.546875 10.8125 -0.078125 C 10.394531 0.378906 9.957031 0.828125 9.5 1.265625 L 8.34375 0.3125 C 8.300781 0.5625 8.21875 0.8125 8.09375 1.0625 C 7.96875 1.3125 7.773438 1.546875 7.515625 1.765625 C 7.253906 1.992188 6.914062 2.203125 6.5 2.390625 C 6.09375 2.585938 5.582031 2.734375 4.96875 2.828125 C 4.789062 2.460938 4.609375 2.15625 4.421875 1.90625 C 4.242188 1.65625 4.035156 1.429688 3.796875 1.234375 C 3.554688 1.046875 3.273438 0.894531 2.953125 0.78125 C 2.640625 0.664062 2.242188 0.566406 1.765625 0.484375 L 1.765625 -1.328125 C 2.585938 -1.253906 3.210938 -1.21875 3.640625 -1.21875 C 4.234375 -1.21875 4.59375 -1.285156 4.71875 -1.421875 C 4.84375 -1.566406 4.90625 -1.796875 4.90625 -2.109375 L 4.90625 -7.359375 C 4.519531 -7.109375 4.144531 -6.867188 3.78125 -6.640625 C 3.414062 -6.410156 3.039062 -6.179688 2.65625 -5.953125 L 0.75 -9.609375 C 1.457031 -9.785156 2.148438 -9.988281 2.828125 -10.21875 C 3.503906 -10.445312 4.195312 -10.707031 4.90625 -11 L 4.90625 -16.390625 L 2.21875 -16.390625 L 1.21875 -18.875 L 4.90625 -18.875 L 4.90625 -22.03125 C 4.445312 -21.875 3.992188 -21.742188 3.546875 -21.640625 C 3.109375 -21.546875 2.675781 -21.441406 2.25 -21.328125 L 1.1875 -23.0625 C 1.851562 -23.332031 2.515625 -23.648438 3.171875 -24.015625 C 3.828125 -24.378906 4.445312 -24.769531 5.03125 -25.1875 C 5.625 -25.601562 6.175781 -26.039062 6.6875 -26.5 C 7.195312 -26.957031 7.632812 -27.410156 8 -27.859375 L 10.390625 -24.96875 C 10.367188 -25.5625 10.351562 -26.144531 10.34375 -26.71875 C 10.332031 -27.300781 10.328125 -27.796875 10.328125 -28.203125 L 13.6875 -28.203125 C 13.6875 -28.085938 13.6875 -27.929688 13.6875 -27.734375 C 13.6875 -27.546875 13.675781 -27.148438 13.65625 -26.546875 C 13.632812 -25.953125 13.617188 -25.054688 13.609375 -23.859375 C 13.597656 -22.671875 13.566406 -21.007812 13.515625 -18.875 L 15.09375 -18.875 L 16.96875 -20.265625 L 19.046875 -18.296875 L 19.046875 -25.984375 L 22.28125 -25.140625 C 22.476562 -25.734375 22.640625 -26.335938 22.765625 -26.953125 C 22.890625 -27.578125 22.976562 -28.175781 23.03125 -28.75 L 28.140625 -27.96875 C 27.660156 -27.445312 27.144531 -26.941406 26.59375 -26.453125 C 26.050781 -25.960938 25.519531 -25.523438 25 -25.140625 L 27.890625 -25.140625 L 28.890625 -26.234375 L 31.875 -24.625 L 31 -23.578125 L 31 -14.78125 L 27.59375 -14.78125 L 27.59375 -15.359375 L 22.375 -15.359375 L 22.375 -13.5625 L 29.640625 -13.5625 L 31.40625 -14.921875 L 33.546875 -13.015625 L 31.4375 -11.34375 L 22.375 -11.34375 L 22.375 -9.609375 L 29.53125 -9.609375 L 30.28125 -10.53125 L 33.375 -8.921875 L 32.53125 -7.65625 C 32.53125 -6.914062 32.492188 -6.015625 32.421875 -4.953125 C 32.359375 -3.898438 32.234375 -2.816406 32.046875 -1.703125 C 31.796875 -0.203125 31.273438 0.9375 30.484375 1.71875 C 29.691406 2.5 28.523438 2.945312 26.984375 3.0625 C 26.679688 2.519531 26.300781 2.097656 25.84375 1.796875 C 25.394531 1.503906 24.738281 1.242188 23.875 1.015625 L 24.046875 -0.6875 C 24.546875 -0.570312 24.984375 -0.484375 25.359375 -0.421875 C 25.734375 -0.367188 26.078125 -0.34375 26.390625 -0.34375 C 26.867188 -0.34375 27.265625 -0.410156 27.578125 -0.546875 C 27.898438 -0.679688 28.148438 -0.894531 28.328125 -1.1875 C 28.515625 -1.488281 28.660156 -1.863281 28.765625 -2.3125 C 28.867188 -2.769531 28.941406 -3.316406 28.984375 -3.953125 Z M 24.53125 -1.0625 C 24.5 -1.851562 24.378906 -2.695312 24.171875 -3.59375 C 23.972656 -4.488281 23.726562 -5.273438 23.4375 -5.953125 L 24.6875 -6.4375 C 24.875 -6.207031 25.0625 -5.921875 25.25 -5.578125 C 25.445312 -5.242188 25.632812 -4.890625 25.8125 -4.515625 C 26 -4.140625 26.175781 -3.769531 26.34375 -3.40625 C 26.519531 -3.039062 26.648438 -2.722656 26.734375 -2.453125 Z M 21.25 0.890625 C 21.300781 0.367188 21.335938 -0.179688 21.359375 -0.765625 C 21.378906 -1.347656 21.390625 -1.921875 21.390625 -2.484375 C 21.390625 -3.078125 21.367188 -3.648438 21.328125 -4.203125 C 21.296875 -4.765625 21.25 -5.25 21.1875 -5.65625 L 22.546875 -5.953125 C 22.679688 -5.660156 22.820312 -5.296875 22.96875 -4.859375 C 23.125 -4.429688 23.253906 -3.976562 23.359375 -3.5 C 23.472656 -3.03125 23.582031 -2.550781 23.6875 -2.0625 C 23.789062 -1.570312 23.863281 -1.113281 23.90625 -0.6875 Z M 27.59375 -22.921875 L 22.375 -22.921875 L 22.375 -21.328125 L 27.59375 -21.328125 Z M 27.59375 -19.25 L 22.375 -19.25 L 22.375 -17.515625 L 27.59375 -17.515625 Z M 10.421875 -18.875 C 10.398438 -19.800781 10.390625 -20.691406 10.390625 -21.546875 C 10.390625 -22.398438 10.390625 -23.210938 10.390625 -23.984375 L 10.390625 -24.328125 C 10.046875 -24.140625 9.695312 -23.96875 9.34375 -23.8125 C 9 -23.65625 8.644531 -23.492188 8.28125 -23.328125 L 8.28125 -18.875 Z M 8.375 -0.953125 C 8.375 -0.910156 8.378906 -0.851562 8.390625 -0.78125 C 8.398438 -0.71875 8.40625 -0.640625 8.40625 -0.546875 C 8.957031 -1.203125 9.476562 -1.894531 9.96875 -2.625 C 10.457031 -3.351562 10.914062 -4.101562 11.34375 -4.875 C 11.09375 -6.53125 10.898438 -8.363281 10.765625 -10.375 C 10.628906 -12.382812 10.535156 -14.390625 10.484375 -16.390625 L 8.28125 -16.390625 L 8.28125 -12.5625 C 8.550781 -12.695312 8.820312 -12.835938 9.09375 -12.984375 C 9.363281 -13.140625 9.625 -13.285156 9.875 -13.421875 L 10.453125 -11.65625 C 10.117188 -11.332031 9.769531 -11.019531 9.40625 -10.71875 C 9.039062 -10.425781 8.664062 -10.125 8.28125 -9.8125 L 8.28125 -3.296875 Z M 8.375 -0.953125 "/></g></g></g><g fill="#000000" fill-opacity="1"><g transform="translate(225.937166, 173.810393)"><g><path d="M 29.015625 -23.46875 C 28.742188 -24.195312 28.363281 -24.914062 27.875 -25.625 C 27.382812 -26.34375 26.90625 -26.941406 26.4375 -27.421875 L 27.859375 -28.3125 C 28.515625 -28.03125 29.210938 -27.65625 29.953125 -27.1875 C 30.691406 -26.726562 31.320312 -26.238281 31.84375 -25.71875 Z M 33.25 -5.515625 C 32.882812 -4.203125 32.625 -3.085938 32.46875 -2.171875 C 32.320312 -1.265625 32.25 -0.453125 32.25 0.265625 C 32.25 0.992188 32.320312 1.664062 32.46875 2.28125 C 32.050781 2.757812 31.398438 3 30.515625 3 C 30.085938 3 29.628906 2.914062 29.140625 2.75 C 28.648438 2.59375 28.164062 2.320312 27.6875 1.9375 C 27.21875 1.550781 26.757812 1.039062 26.3125 0.40625 C 25.875 -0.226562 25.484375 -1.035156 25.140625 -2.015625 C 24.273438 -1.097656 23.3125 -0.238281 22.25 0.5625 C 21.195312 1.363281 20.023438 2.128906 18.734375 2.859375 L 16.828125 1.390625 C 18.367188 0.441406 19.757812 -0.597656 21 -1.734375 C 22.238281 -2.867188 23.289062 -4.082031 24.15625 -5.375 C 23.875 -6.5625 23.632812 -7.800781 23.4375 -9.09375 C 23.25 -10.382812 23.09375 -11.691406 22.96875 -13.015625 C 22.84375 -14.347656 22.742188 -15.660156 22.671875 -16.953125 C 22.609375 -18.253906 22.554688 -19.492188 22.515625 -20.671875 L 16.25 -20.671875 C 16.25 -19.992188 16.253906 -19.273438 16.265625 -18.515625 C 16.273438 -17.753906 16.28125 -17.066406 16.28125 -16.453125 L 18.625 -16.453125 L 19.453125 -17.296875 L 22.625 -15.765625 L 21.734375 -14.578125 L 21.734375 -11.65625 C 21.734375 -10.789062 21.71875 -9.898438 21.6875 -8.984375 C 21.664062 -8.078125 21.613281 -7.265625 21.53125 -6.546875 C 21.320312 -5.085938 20.835938 -3.914062 20.078125 -3.03125 C 19.316406 -2.144531 18.222656 -1.703125 16.796875 -1.703125 L 16.65625 -1.703125 C 16.5 -2.179688 16.242188 -2.578125 15.890625 -2.890625 C 15.535156 -3.210938 15.132812 -3.472656 14.6875 -3.671875 C 14.226562 -2.492188 13.660156 -1.367188 12.984375 -0.296875 C 12.316406 0.765625 11.5 1.828125 10.53125 2.890625 L 8.3125 1.90625 C 9.40625 0.425781 10.234375 -1.019531 10.796875 -2.4375 C 11.367188 -3.851562 11.789062 -5.320312 12.0625 -6.84375 C 10.90625 -5.820312 9.535156 -4.765625 7.953125 -3.671875 C 6.378906 -2.585938 4.757812 -1.578125 3.09375 -0.640625 L 0.609375 -4.796875 C 1.265625 -4.960938 1.925781 -5.140625 2.59375 -5.328125 C 3.269531 -5.523438 3.960938 -5.734375 4.671875 -5.953125 L 4.671875 -17.09375 L 1.96875 -17.09375 L 1.015625 -19.65625 L 4.671875 -19.65625 L 4.671875 -28.40625 L 8.578125 -28.40625 L 8.578125 -19.65625 L 8.71875 -19.65625 L 10.359375 -21.046875 L 12.46875 -19.046875 C 12.46875 -19.566406 12.460938 -20.082031 12.453125 -20.59375 C 12.441406 -21.101562 12.421875 -21.59375 12.390625 -22.0625 C 12.367188 -22.539062 12.347656 -22.972656 12.328125 -23.359375 C 12.304688 -23.753906 12.285156 -24.085938 12.265625 -24.359375 L 16.421875 -23.296875 L 22.40625 -23.296875 L 22.40625 -23.984375 C 22.40625 -24.296875 22.398438 -24.65625 22.390625 -25.0625 C 22.378906 -25.476562 22.367188 -25.894531 22.359375 -26.3125 C 22.347656 -26.726562 22.34375 -27.125 22.34375 -27.5 C 22.34375 -27.875 22.34375 -28.195312 22.34375 -28.46875 L 26.234375 -28.46875 C 26.203125 -28.175781 26.1875 -27.847656 26.1875 -27.484375 C 26.1875 -27.117188 26.1875 -26.742188 26.1875 -26.359375 L 26.1875 -23.296875 L 29.90625 -23.296875 L 31.46875 -24.53125 L 33.6875 -22.65625 L 31.4375 -20.671875 L 26.234375 -20.671875 C 26.273438 -18.972656 26.347656 -17.242188 26.453125 -15.484375 C 26.554688 -13.722656 26.707031 -12.023438 26.90625 -10.390625 C 27.3125 -11.617188 27.664062 -12.941406 27.96875 -14.359375 C 28.28125 -15.773438 28.503906 -17.164062 28.640625 -18.53125 L 32.296875 -17.78125 C 31.816406 -15.4375 31.226562 -13.242188 30.53125 -11.203125 C 29.84375 -9.160156 28.929688 -7.242188 27.796875 -5.453125 C 28.046875 -4.515625 28.320312 -3.71875 28.625 -3.0625 C 28.9375 -2.40625 29.179688 -2.078125 29.359375 -2.078125 C 29.609375 -2.078125 29.863281 -2.457031 30.125 -3.21875 C 30.382812 -3.976562 30.695312 -5.109375 31.0625 -6.609375 Z M 16.25 -13.890625 C 16.195312 -12.234375 16.097656 -10.707031 15.953125 -9.3125 C 15.804688 -7.914062 15.5625 -6.59375 15.21875 -5.34375 C 15.5625 -5.28125 15.878906 -5.25 16.171875 -5.25 C 16.722656 -5.25 17.144531 -5.382812 17.4375 -5.65625 C 17.726562 -5.925781 17.941406 -6.390625 18.078125 -7.046875 C 18.222656 -7.703125 18.304688 -8.585938 18.328125 -9.703125 C 18.347656 -10.816406 18.359375 -12.210938 18.359375 -13.890625 Z M 12.15625 -7.5 C 12.320312 -8.539062 12.425781 -9.625 12.46875 -10.75 C 12.507812 -11.875 12.53125 -13.0625 12.53125 -14.3125 L 12.53125 -16.015625 C 12.53125 -16.398438 12.523438 -16.832031 12.515625 -17.3125 C 12.503906 -17.800781 12.488281 -18.320312 12.46875 -18.875 L 10.390625 -17.09375 L 8.578125 -17.09375 L 8.578125 -7.453125 C 9.597656 -7.929688 10.550781 -8.445312 11.4375 -9 Z M 12.15625 -7.5 "/></g></g></g><g fill="#000000" fill-opacity="1"><g transform="translate(258.288324, 173.810393)"><g><path d="M 32.765625 -16.859375 C 32.359375 -16.703125 31.972656 -16.507812 31.609375 -16.28125 C 31.296875 -16.101562 30.988281 -15.878906 30.6875 -15.609375 C 30.394531 -15.347656 30.15625 -15.050781 29.96875 -14.71875 C 28.0625 -14.945312 26.40625 -15.421875 25 -16.140625 C 23.59375 -16.867188 22.523438 -18.015625 21.796875 -19.578125 C 20.773438 -18.109375 19.210938 -17.003906 17.109375 -16.265625 C 15.015625 -15.523438 12.535156 -15.097656 9.671875 -14.984375 L 8.546875 -16.765625 C 10.390625 -16.984375 11.953125 -17.296875 13.234375 -17.703125 C 14.515625 -18.117188 15.546875 -18.601562 16.328125 -19.15625 C 17.117188 -19.71875 17.691406 -20.335938 18.046875 -21.015625 C 18.410156 -21.691406 18.59375 -22.421875 18.59375 -23.203125 L 22.984375 -23.203125 C 22.984375 -22.859375 22.953125 -22.523438 22.890625 -22.203125 C 23.160156 -21.367188 23.578125 -20.707031 24.140625 -20.21875 C 24.710938 -19.726562 25.429688 -19.351562 26.296875 -19.09375 C 27.160156 -18.832031 28.160156 -18.65625 29.296875 -18.5625 C 30.429688 -18.46875 31.703125 -18.410156 33.109375 -18.390625 Z M 31.40625 -24.25 L 27.484375 -20.4375 L 24.90625 -20.953125 C 25.15625 -21.492188 25.378906 -22.035156 25.578125 -22.578125 C 25.785156 -23.128906 25.96875 -23.628906 26.125 -24.078125 L 17.875 -24.078125 C 16.632812 -22.691406 15.265625 -21.523438 13.765625 -20.578125 L 12.84375 -21.015625 L 13.046875 -19.859375 C 11.617188 -19.203125 10.054688 -18.5625 8.359375 -17.9375 C 6.671875 -17.3125 4.972656 -16.757812 3.265625 -16.28125 L 1.46875 -20 C 3.300781 -20.113281 5.082031 -20.3125 6.8125 -20.59375 C 8.539062 -20.875 10.207031 -21.195312 11.8125 -21.5625 L 11.78125 -21.5625 C 12.78125 -22.582031 13.601562 -23.726562 14.25 -25 C 14.894531 -26.269531 15.359375 -27.5 15.640625 -28.6875 L 20.546875 -27.859375 C 20.265625 -27.359375 19.957031 -26.847656 19.625 -26.328125 L 27.484375 -26.328125 L 29.15625 -27.625 L 33 -25.34375 Z M 10.046875 -21.765625 C 9.097656 -22.492188 7.96875 -23.15625 6.65625 -23.75 C 5.351562 -24.351562 4.078125 -24.847656 2.828125 -25.234375 L 3.953125 -26.875 C 5.265625 -26.800781 6.6875 -26.644531 8.21875 -26.40625 C 9.757812 -26.175781 11.195312 -25.878906 12.53125 -25.515625 Z M 23.84375 -1.90625 L 23.84375 -2.453125 L 10.25 -2.453125 L 10.25 -1.90625 L 6.265625 -1.90625 L 6.265625 -15.46875 L 10.453125 -14.46875 L 24.28125 -14.46875 L 25.28125 -15.4375 L 28.84375 -13.828125 L 27.859375 -12.640625 L 27.859375 -1.90625 Z M 29.015625 3.265625 C 28.378906 2.953125 27.644531 2.628906 26.8125 2.296875 C 25.988281 1.972656 25.125 1.65625 24.21875 1.34375 C 23.3125 1.039062 22.390625 0.769531 21.453125 0.53125 C 20.523438 0.289062 19.640625 0.09375 18.796875 -0.0625 L 20.171875 -1.8125 C 20.960938 -1.78125 21.859375 -1.722656 22.859375 -1.640625 C 23.859375 -1.566406 24.894531 -1.46875 25.96875 -1.34375 C 27.050781 -1.21875 28.128906 -1.066406 29.203125 -0.890625 C 30.285156 -0.722656 31.289062 -0.53125 32.21875 -0.3125 Z M 15.734375 0.40625 C 14.847656 0.75 13.890625 1.070312 12.859375 1.375 C 11.828125 1.6875 10.75 1.96875 9.625 2.21875 C 8.5 2.46875 7.359375 2.675781 6.203125 2.84375 C 5.046875 3.007812 3.898438 3.140625 2.765625 3.234375 L 1.53125 1.359375 C 3.59375 0.929688 5.519531 0.398438 7.3125 -0.234375 C 9.113281 -0.867188 10.613281 -1.570312 11.8125 -2.34375 Z M 23.84375 -12.5 L 10.25 -12.5 L 10.25 -11.109375 L 23.84375 -11.109375 Z M 23.84375 -9.265625 L 10.25 -9.265625 L 10.25 -7.765625 L 23.84375 -7.765625 Z M 23.84375 -5.921875 L 10.25 -5.921875 L 10.25 -4.421875 L 23.84375 -4.421875 Z M 23.84375 -5.921875 "/></g></g></g><g fill="#000000" fill-opacity="1"><g transform="translate(290.639475, 173.810393)"><g><path d="M 33.71875 -6.984375 C 33.46875 -5.617188 33.289062 -4.453125 33.1875 -3.484375 C 33.09375 -2.523438 33.046875 -1.691406 33.046875 -0.984375 C 33.046875 -0.398438 33.070312 0.0976562 33.125 0.515625 C 33.175781 0.941406 33.25 1.347656 33.34375 1.734375 C 33.113281 1.984375 32.800781 2.191406 32.40625 2.359375 C 32.007812 2.535156 31.570312 2.625 31.09375 2.625 C 30.070312 2.625 29.207031 2.304688 28.5 1.671875 C 27.800781 1.035156 27.21875 0.210938 26.75 -0.796875 C 26.289062 -1.804688 25.9375 -2.945312 25.6875 -4.21875 C 25.4375 -5.488281 25.25 -6.753906 25.125 -8.015625 C 25 -9.273438 24.921875 -10.476562 24.890625 -11.625 C 24.867188 -12.78125 24.859375 -13.742188 24.859375 -14.515625 L 24.859375 -15.0625 C 24.359375 -14.695312 23.835938 -14.34375 23.296875 -14 C 22.753906 -13.65625 22.1875 -13.316406 21.59375 -12.984375 C 21.457031 -11.460938 21.238281 -9.953125 20.9375 -8.453125 C 20.644531 -6.953125 20.25 -5.507812 19.75 -4.125 C 19.25 -2.738281 18.628906 -1.441406 17.890625 -0.234375 C 17.160156 0.960938 16.257812 2.039062 15.1875 3 L 13.1875 1.84375 C 13.863281 1.070312 14.457031 0.207031 14.96875 -0.75 C 15.476562 -1.707031 15.910156 -2.726562 16.265625 -3.8125 C 16.617188 -4.90625 16.898438 -6.046875 17.109375 -7.234375 C 17.328125 -8.429688 17.503906 -9.65625 17.640625 -10.90625 C 17.210938 -10.71875 16.789062 -10.53125 16.375 -10.34375 C 15.96875 -10.164062 15.550781 -10 15.125 -9.84375 L 13.28125 -13.828125 C 14.050781 -13.941406 14.820312 -14.085938 15.59375 -14.265625 C 16.375 -14.453125 17.148438 -14.644531 17.921875 -14.84375 C 17.984375 -16.6875 18.015625 -18.503906 18.015625 -20.296875 C 18.015625 -21.023438 18.007812 -21.734375 18 -22.421875 C 17.988281 -23.117188 17.984375 -23.796875 17.984375 -24.453125 L 14.84375 -24.453125 L 13.859375 -27.015625 L 25.859375 -27.015625 L 27.015625 -28.140625 L 30.484375 -26.265625 L 29.328125 -25.03125 C 29.078125 -23.195312 28.878906 -21.300781 28.734375 -19.34375 C 28.585938 -17.394531 28.515625 -15.46875 28.515625 -13.5625 C 28.515625 -11.40625 28.628906 -9.40625 28.859375 -7.5625 C 29.097656 -5.71875 29.515625 -4.207031 30.109375 -3.03125 C 30.179688 -2.914062 30.238281 -2.859375 30.28125 -2.859375 C 30.351562 -2.859375 30.425781 -2.945312 30.5 -3.125 C 30.582031 -3.3125 30.671875 -3.617188 30.765625 -4.046875 C 30.867188 -4.484375 30.988281 -5.046875 31.125 -5.734375 C 31.269531 -6.429688 31.441406 -7.300781 31.640625 -8.34375 Z M 10.828125 -25.0625 L 3.203125 -25.0625 L 2.21875 -27.484375 L 8.578125 -27.484375 L 10.734375 -28.953125 L 13.390625 -26.84375 Z M 12.671875 -20.375 L 1.765625 -20.375 L 0.78125 -22.78125 L 10.453125 -22.78125 L 12.609375 -24.28125 L 15.21875 -22.171875 Z M 11.203125 -15.640625 L 3.34375 -15.640625 L 2.34375 -18.046875 L 8.921875 -18.046875 L 11 -19.515625 L 13.65625 -17.40625 Z M 10.90625 -11.03125 L 3.34375 -11.03125 L 2.34375 -13.453125 L 8.625 -13.453125 L 10.796875 -14.921875 L 13.453125 -12.8125 Z M 9.09375 2.6875 L 9.09375 1.4375 L 6.203125 1.4375 L 6.203125 3.09375 L 2.453125 3.09375 L 2.453125 -9.53125 L 6.546875 -8.546875 L 9.4375 -8.546875 L 10.453125 -9.5 L 13.5625 -7.96875 L 12.734375 -6.84375 L 12.734375 2.6875 Z M 24.859375 -15.359375 C 24.890625 -16.878906 24.9375 -18.40625 25 -19.9375 C 25.070312 -21.476562 25.164062 -22.984375 25.28125 -24.453125 L 21.96875 -24.453125 C 21.96875 -23.179688 21.957031 -21.84375 21.9375 -20.4375 C 21.914062 -19.03125 21.867188 -17.578125 21.796875 -16.078125 C 22.773438 -16.441406 23.617188 -16.78125 24.328125 -17.09375 Z M 9.09375 -6.09375 L 6.203125 -6.09375 L 6.203125 -1.015625 L 9.09375 -1.015625 Z M 9.09375 -6.09375 "/></g></g></g><g fill="#000000" fill-opacity="1"><g transform="translate(193.586008, 197.723425)"><g><path d="M 6.925781 -7.746094 L 6.925781 -6.726562 C 6.398438 -7.515625 5.53125 -7.980469 4.230469 -7.980469 C 1.703125 -7.980469 0.621094 -6.261719 0.621094 -4.089844 C 0.621094 -1.96875 1.703125 -0.234375 4.230469 -0.234375 C 5.53125 -0.234375 6.398438 -0.667969 6.925781 -1.457031 L 6.925781 -0.046875 C 6.925781 1.175781 6.320312 1.65625 4.972656 1.65625 C 3.6875 1.65625 3.144531 1.132812 3.050781 0.339844 L 0.804688 0.339844 C 0.914062 2.078125 2.230469 3.269531 4.882812 3.269531 C 8.027344 3.269531 9.21875 2.0625 9.21875 -0.308594 L 9.21875 -7.746094 Z M 4.957031 -1.921875 C 3.5 -1.921875 2.914062 -2.511719 2.914062 -4.058594 C 2.914062 -5.609375 3.5 -6.199219 4.957031 -6.199219 C 6.382812 -6.199219 6.925781 -5.53125 6.925781 -4.058594 C 6.925781 -2.601562 6.382812 -1.921875 4.957031 -1.921875 Z M 4.957031 -1.921875 "/></g></g></g><g fill="#000000" fill-opacity="1"><g transform="translate(203.671468, 197.723425)"><g><path d="M 4.867188 0.246094 C 7.964844 0.246094 9.15625 -1.734375 9.15625 -3.890625 C 9.15625 -6.011719 7.964844 -7.996094 4.867188 -7.996094 C 1.78125 -7.996094 0.574219 -6.027344 0.574219 -3.890625 C 0.574219 -1.71875 1.78125 0.246094 4.867188 0.246094 Z M 2.882812 -3.875 C 2.882812 -5.59375 3.472656 -6.199219 4.867188 -6.199219 C 6.277344 -6.199219 6.863281 -5.59375 6.863281 -3.875 C 6.863281 -2.152344 6.277344 -1.550781 4.867188 -1.550781 C 3.472656 -1.550781 2.882812 -2.152344 2.882812 -3.875 Z M 2.882812 -3.875 "/></g></g></g><g fill="#000000" fill-opacity="1"><g transform="translate(213.400605, 197.723425)"><g><path d="M 4.867188 0.246094 C 7.964844 0.246094 9.15625 -1.734375 9.15625 -3.890625 C 9.15625 -6.011719 7.964844 -7.996094 4.867188 -7.996094 C 1.78125 -7.996094 0.574219 -6.027344 0.574219 -3.890625 C 0.574219 -1.71875 1.78125 0.246094 4.867188 0.246094 Z M 2.882812 -3.875 C 2.882812 -5.59375 3.472656 -6.199219 4.867188 -6.199219 C 6.277344 -6.199219 6.863281 -5.59375 6.863281 -3.875 C 6.863281 -2.152344 6.277344 -1.550781 4.867188 -1.550781 C 3.472656 -1.550781 2.882812 -2.152344 2.882812 -3.875 Z M 2.882812 -3.875 "/></g></g></g><g fill="#000000" fill-opacity="1"><g transform="translate(223.129741, 197.723425)"><g><path d="M 0.402344 -2.527344 C 0.449219 -1.054688 1.488281 0.246094 4.246094 0.246094 C 6.910156 0.246094 7.871094 -0.804688 7.871094 -2.324219 C 7.871094 -3.703125 7.175781 -4.492188 5.332031 -4.726562 L 3.703125 -4.910156 C 2.929688 -5.003906 2.726562 -5.316406 2.726562 -5.703125 C 2.726562 -6.199219 3.128906 -6.570312 4.121094 -6.570312 C 5.082031 -6.570312 5.5625 -6.121094 5.640625 -5.484375 L 7.761719 -5.484375 C 7.625 -7.191406 6.214844 -8.011719 4.121094 -8.011719 C 2.0625 -8.011719 0.605469 -7.207031 0.605469 -5.484375 C 0.605469 -4.183594 1.394531 -3.410156 2.851562 -3.222656 L 4.585938 -3.007812 C 5.453125 -2.898438 5.671875 -2.558594 5.671875 -2.09375 C 5.671875 -1.550781 5.316406 -1.191406 4.277344 -1.191406 C 3.113281 -1.191406 2.558594 -1.78125 2.496094 -2.527344 Z M 0.402344 -2.527344 "/></g></g></g><g fill="#000000" fill-opacity="1"><g transform="translate(231.464576, 197.723425)"><g><path d="M 4.789062 -1.332031 C 3.6875 -1.332031 2.960938 -1.8125 2.820312 -3.285156 L 8.722656 -3.285156 C 8.753906 -3.457031 8.753906 -3.671875 8.753906 -3.90625 C 8.753906 -6.089844 7.671875 -7.996094 4.742188 -7.996094 C 1.875 -7.996094 0.574219 -6.136719 0.574219 -3.890625 C 0.574219 -1.703125 1.71875 0.246094 4.742188 0.246094 C 7.53125 0.246094 8.523438 -1.101562 8.738281 -2.339844 L 6.539062 -2.339844 C 6.320312 -1.765625 5.796875 -1.332031 4.789062 -1.332031 Z M 4.773438 -6.445312 C 5.917969 -6.445312 6.492188 -5.855469 6.570312 -4.679688 L 2.835938 -4.679688 C 3.023438 -5.996094 3.671875 -6.445312 4.773438 -6.445312 Z M 4.773438 -6.445312 "/></g></g></g><g fill="#000000" fill-opacity="1"><g transform="translate(240.759936, 197.723425)"><g/></g></g><g fill="#000000" fill-opacity="1"><g transform="translate(244.67948, 197.723425)"><g><path d="M 4.429688 0 L 5.886719 0 L 5.886719 -1.828125 L 3.875 -1.828125 L 3.875 -6.011719 L 6.105469 -6.011719 L 6.105469 -7.746094 L 3.875 -7.746094 L 3.875 -9.589844 L 2.710938 -9.589844 L 1.765625 -7.761719 L 0.171875 -7.113281 L 0.171875 -6.011719 L 1.582031 -6.011719 L 1.582031 -2.789062 C 1.582031 -0.945312 2.230469 0 4.429688 0 Z M 4.429688 0 "/></g></g></g><g fill="#000000" fill-opacity="1"><g transform="translate(251.186224, 197.723425)"><g><path d="M 4.867188 0.246094 C 7.964844 0.246094 9.15625 -1.734375 9.15625 -3.890625 C 9.15625 -6.011719 7.964844 -7.996094 4.867188 -7.996094 C 1.78125 -7.996094 0.574219 -6.027344 0.574219 -3.890625 C 0.574219 -1.71875 1.78125 0.246094 4.867188 0.246094 Z M 2.882812 -3.875 C 2.882812 -5.59375 3.472656 -6.199219 4.867188 -6.199219 C 6.277344 -6.199219 6.863281 -5.59375 6.863281 -3.875 C 6.863281 -2.152344 6.277344 -1.550781 4.867188 -1.550781 C 3.472656 -1.550781 2.882812 -2.152344 2.882812 -3.875 Z M 2.882812 -3.875 "/></g></g></g><g fill="#000000" fill-opacity="1"><g transform="translate(260.915361, 197.723425)"><g><path d="M 11.699219 -7.746094 L 10.226562 -1.71875 L 8.335938 -7.746094 L 5.949219 -7.746094 L 4.058594 -1.703125 L 2.570312 -7.746094 L 0.246094 -7.746094 L 2.292969 0 L 5.5 0 L 7.050781 -5.359375 L 8.613281 0 L 11.808594 0 L 13.851562 -7.746094 Z M 11.699219 -7.746094 "/></g></g></g><g fill="#000000" fill-opacity="1"><g transform="translate(275.013314, 197.723425)"><g><path d="M 5.980469 -7.996094 C 4.570312 -7.996094 3.6875 -7.28125 3.191406 -6.230469 L 3.191406 -7.746094 L 0.898438 -7.746094 L 0.898438 0 L 3.191406 0 L 3.191406 -3.515625 C 3.191406 -5.359375 3.875 -6.136719 5.097656 -6.136719 C 6.042969 -6.136719 6.570312 -5.640625 6.570312 -4.402344 L 6.570312 0 L 8.863281 0 L 8.863281 -4.757812 C 8.863281 -6.785156 8.011719 -7.996094 5.980469 -7.996094 Z M 5.980469 -7.996094 "/></g></g></g><g fill="#000000" fill-opacity="1"><g transform="translate(284.664997, 197.723425)"><g/></g></g><g fill="#000000" fill-opacity="1"><g transform="translate(288.584541, 197.723425)"><g><path d="M 4.429688 0 L 5.886719 0 L 5.886719 -1.828125 L 3.875 -1.828125 L 3.875 -6.011719 L 6.105469 -6.011719 L 6.105469 -7.746094 L 3.875 -7.746094 L 3.875 -9.589844 L 2.710938 -9.589844 L 1.765625 -7.761719 L 0.171875 -7.113281 L 0.171875 -6.011719 L 1.582031 -6.011719 L 1.582031 -2.789062 C 1.582031 -0.945312 2.230469 0 4.429688 0 Z M 4.429688 0 "/></g></g></g><g fill="#000000" fill-opacity="1"><g transform="translate(295.091285, 197.723425)"><g><path d="M 4.789062 -1.332031 C 3.6875 -1.332031 2.960938 -1.8125 2.820312 -3.285156 L 8.722656 -3.285156 C 8.753906 -3.457031 8.753906 -3.671875 8.753906 -3.90625 C 8.753906 -6.089844 7.671875 -7.996094 4.742188 -7.996094 C 1.875 -7.996094 0.574219 -6.136719 0.574219 -3.890625 C 0.574219 -1.703125 1.71875 0.246094 4.742188 0.246094 C 7.53125 0.246094 8.523438 -1.101562 8.738281 -2.339844 L 6.539062 -2.339844 C 6.320312 -1.765625 5.796875 -1.332031 4.789062 -1.332031 Z M 4.773438 -6.445312 C 5.917969 -6.445312 6.492188 -5.855469 6.570312 -4.679688 L 2.835938 -4.679688 C 3.023438 -5.996094 3.671875 -6.445312 4.773438 -6.445312 Z M 4.773438 -6.445312 "/></g></g></g><g fill="#000000" fill-opacity="1"><g transform="translate(304.386645, 197.723425)"><g><path d="M 0.574219 -3.875 C 0.574219 -1.703125 1.84375 0.246094 4.867188 0.246094 C 7.59375 0.246094 8.878906 -1.378906 8.925781 -3.191406 L 6.695312 -3.191406 C 6.601562 -2.261719 6.058594 -1.550781 4.835938 -1.550781 C 3.59375 -1.550781 2.882812 -2.121094 2.882812 -3.875 C 2.882812 -5.609375 3.625 -6.199219 4.867188 -6.199219 C 6.042969 -6.199219 6.570312 -5.5625 6.648438 -4.601562 L 8.878906 -4.601562 C 8.816406 -6.507812 7.5 -7.996094 4.820312 -7.996094 C 1.8125 -7.996094 0.574219 -6.042969 0.574219 -3.875 Z M 0.574219 -3.875 "/></g></g></g><g fill="#000000" fill-opacity="1"><g transform="translate(313.821428, 197.723425)"><g><path d="M 5.980469 -7.996094 C 4.570312 -7.996094 3.6875 -7.28125 3.191406 -6.230469 L 3.191406 -10.847656 L 0.898438 -10.847656 L 0.898438 0 L 3.191406 0 L 3.191406 -3.515625 C 3.191406 -5.359375 3.875 -6.136719 5.097656 -6.136719 C 6.042969 -6.136719 6.570312 -5.640625 6.570312 -4.402344 L 6.570312 0 L 8.863281 0 L 8.863281 -4.757812 C 8.863281 -6.785156 8.011719 -7.996094 5.980469 -7.996094 Z M 5.980469 -7.996094 "/></g></g></g><g fill="#eeba2b" fill-opacity="1"><g transform="translate(193.586008, 213.436102)"><g><path d="M 1.355469 0 L 1.355469 -5.570312 L 3.199219 0 L 3.921875 0 L 5.765625 -5.609375 L 5.765625 0 L 6.496094 0 L 6.496094 -6.042969 L 5.179688 -6.042969 L 3.558594 -0.902344 L 1.933594 -6.042969 L 0.625 -6.042969 L 0.625 0 Z M 1.355469 0 "/></g></g></g><g fill="#eeba2b" fill-opacity="1"><g transform="translate(201.912065, 213.436102)"><g><path d="M 0.847656 0 L 1.378906 -1.480469 L 4.121094 -1.480469 L 4.648438 0 L 5.386719 0 L 3.160156 -6.042969 L 2.335938 -6.042969 L 0.109375 0 Z M 2.75 -5.300781 L 3.875 -2.132812 L 1.625 -2.132812 Z M 2.75 -5.300781 "/></g></g></g><g fill="#eeba2b" fill-opacity="1"><g transform="translate(208.614111, 213.436102)"><g><path d="M 1.355469 0 L 1.355469 -2.9375 L 3.976562 0 L 4.941406 0 L 2.113281 -3.144531 L 4.800781 -6.042969 L 3.867188 -6.042969 L 1.355469 -3.273438 L 1.355469 -6.042969 L 0.625 -6.042969 L 0.625 0 Z M 1.355469 0 "/></g></g></g><g fill="#eeba2b" fill-opacity="1"><g transform="translate(214.82499, 213.436102)"><g><path d="M 1.355469 0 L 1.355469 -6.042969 L 0.625 -6.042969 L 0.625 0 Z M 1.355469 0 "/></g></g></g><g fill="#eeba2b" fill-opacity="1"><g transform="translate(218.017568, 213.436102)"><g><path d="M 1.355469 0 L 1.355469 -5.300781 L 4.0625 0 L 5.125 0 L 5.125 -6.042969 L 4.40625 -6.042969 L 4.40625 -0.730469 L 1.6875 -6.042969 L 0.625 -6.042969 L 0.625 0 Z M 1.355469 0 "/></g></g></g><g fill="#eeba2b" fill-opacity="1"><g transform="translate(224.981037, 213.436102)"><g><path d="M 3.246094 0.078125 C 4.007812 0.078125 4.800781 -0.222656 5.226562 -0.863281 L 5.226562 0 L 5.894531 0 L 5.894531 -3.160156 L 3.730469 -3.160156 L 3.730469 -2.511719 L 5.179688 -2.511719 C 5.179688 -1.308594 4.421875 -0.570312 3.238281 -0.570312 C 1.820312 -0.570312 1.125 -1.71875 1.125 -3.042969 C 1.125 -4.285156 1.75 -5.472656 3.222656 -5.472656 C 4.105469 -5.472656 4.707031 -5.039062 4.976562 -4.382812 L 5.789062 -4.382812 C 5.457031 -5.410156 4.585938 -6.125 3.238281 -6.125 C 1.277344 -6.125 0.394531 -4.609375 0.394531 -3.019531 C 0.394531 -1.433594 1.265625 0.078125 3.246094 0.078125 Z M 3.246094 0.078125 "/></g></g></g><g fill="#eeba2b" fill-opacity="1"><g transform="translate(232.57827, 213.436102)"><g/></g></g><g fill="#eeba2b" fill-opacity="1"><g transform="translate(236.000591, 213.436102)"><g><path d="M 2.882812 0 L 2.882812 -5.386719 L 4.933594 -5.386719 L 4.933594 -6.042969 L 0.109375 -6.042969 L 0.109375 -5.386719 L 2.15625 -5.386719 L 2.15625 0 Z M 2.882812 0 "/></g></g></g><g fill="#eeba2b" fill-opacity="1"><g transform="translate(242.251077, 213.436102)"><g><path d="M 1.355469 0 L 1.355469 -2.71875 L 4.382812 -2.71875 L 4.382812 0 L 5.109375 0 L 5.109375 -6.042969 L 4.382812 -6.042969 L 4.382812 -3.367188 L 1.355469 -3.367188 L 1.355469 -6.042969 L 0.625 -6.042969 L 0.625 0 Z M 1.355469 0 "/></g></g></g><g fill="#eeba2b" fill-opacity="1"><g transform="translate(249.198698, 213.436102)"><g><path d="M 4.53125 0 L 4.53125 -0.65625 L 1.355469 -0.65625 L 1.355469 -2.710938 L 4.160156 -2.710938 L 4.160156 -3.359375 L 1.355469 -3.359375 L 1.355469 -5.386719 L 4.53125 -5.386719 L 4.53125 -6.042969 L 0.625 -6.042969 L 0.625 0 Z M 4.53125 0 "/></g></g></g><g fill="#eeba2b" fill-opacity="1"><g transform="translate(255.282824, 213.436102)"><g/></g></g><g fill="#eeba2b" fill-opacity="1"><g transform="translate(258.705142, 213.436102)"><g><path d="M 1.355469 0 L 1.355469 -2.710938 L 4.160156 -2.710938 L 4.160156 -3.359375 L 1.355469 -3.359375 L 1.355469 -5.386719 L 4.53125 -5.386719 L 4.53125 -6.042969 L 0.625 -6.042969 L 0.625 0 Z M 1.355469 0 "/></g></g></g><g fill="#eeba2b" fill-opacity="1"><g transform="translate(264.670432, 213.436102)"><g><path d="M 2.8125 0.078125 C 4.339844 0.078125 5.054688 -0.753906 5.054688 -2.089844 L 5.054688 -6.042969 L 4.324219 -6.042969 L 4.324219 -2.089844 C 4.324219 -1.148438 3.867188 -0.570312 2.8125 -0.570312 C 1.757812 -0.570312 1.300781 -1.148438 1.300781 -2.089844 L 1.300781 -6.042969 L 0.570312 -6.042969 L 0.570312 -2.089844 C 0.570312 -0.753906 1.285156 0.078125 2.8125 0.078125 Z M 2.8125 0.078125 "/></g></g></g><g fill="#eeba2b" fill-opacity="1"><g transform="translate(271.507146, 213.436102)"><g><path d="M 2.882812 0 L 2.882812 -5.386719 L 4.933594 -5.386719 L 4.933594 -6.042969 L 0.109375 -6.042969 L 0.109375 -5.386719 L 2.15625 -5.386719 L 2.15625 0 Z M 2.882812 0 "/></g></g></g><g fill="#eeba2b" fill-opacity="1"><g transform="translate(277.757632, 213.436102)"><g><path d="M 2.8125 0.078125 C 4.339844 0.078125 5.054688 -0.753906 5.054688 -2.089844 L 5.054688 -6.042969 L 4.324219 -6.042969 L 4.324219 -2.089844 C 4.324219 -1.148438 3.867188 -0.570312 2.8125 -0.570312 C 1.757812 -0.570312 1.300781 -1.148438 1.300781 -2.089844 L 1.300781 -6.042969 L 0.570312 -6.042969 L 0.570312 -2.089844 C 0.570312 -0.753906 1.285156 0.078125 2.8125 0.078125 Z M 2.8125 0.078125 "/></g></g></g><g fill="#eeba2b" fill-opacity="1"><g transform="translate(284.594346, 213.436102)"><g><path d="M 3.707031 -2.6875 C 4.390625 -2.929688 4.792969 -3.5 4.792969 -4.316406 C 4.792969 -5.480469 4.03125 -6.042969 2.875 -6.042969 L 0.625 -6.042969 L 0.625 0 L 1.355469 0 L 1.355469 -2.550781 L 3.003906 -2.550781 L 4.070312 0 L 4.871094 0 Z M 1.355469 -3.199219 L 1.355469 -5.386719 L 2.78125 -5.386719 C 3.597656 -5.386719 4.070312 -4.992188 4.070312 -4.292969 C 4.070312 -3.589844 3.613281 -3.199219 2.78125 -3.199219 Z M 1.355469 -3.199219 "/></g></g></g><g fill="#eeba2b" fill-opacity="1"><g transform="translate(291.027044, 213.436102)"><g><path d="M 4.53125 0 L 4.53125 -0.65625 L 1.355469 -0.65625 L 1.355469 -2.710938 L 4.160156 -2.710938 L 4.160156 -3.359375 L 1.355469 -3.359375 L 1.355469 -5.386719 L 4.53125 -5.386719 L 4.53125 -6.042969 L 0.625 -6.042969 L 0.625 0 Z M 4.53125 0 "/></g></g></g><g fill="#eeba2b" fill-opacity="1"><g transform="translate(297.111174, 213.436102)"><g/></g></g><g fill="#eeba2b" fill-opacity="1"><g transform="translate(300.533498, 213.436102)"><g><path d="M 3.246094 0.078125 C 4.007812 0.078125 4.800781 -0.222656 5.226562 -0.863281 L 5.226562 0 L 5.894531 0 L 5.894531 -3.160156 L 3.730469 -3.160156 L 3.730469 -2.511719 L 5.179688 -2.511719 C 5.179688 -1.308594 4.421875 -0.570312 3.238281 -0.570312 C 1.820312 -0.570312 1.125 -1.71875 1.125 -3.042969 C 1.125 -4.285156 1.75 -5.472656 3.222656 -5.472656 C 4.105469 -5.472656 4.707031 -5.039062 4.976562 -4.382812 L 5.789062 -4.382812 C 5.457031 -5.410156 4.585938 -6.125 3.238281 -6.125 C 1.277344 -6.125 0.394531 -4.609375 0.394531 -3.019531 C 0.394531 -1.433594 1.265625 0.078125 3.246094 0.078125 Z M 3.246094 0.078125 "/></g></g></g><g fill="#eeba2b" fill-opacity="1"><g transform="translate(308.130733, 213.436102)"><g><path d="M 3.199219 0.078125 C 5.117188 0.078125 6.019531 -1.378906 6.019531 -3.027344 C 6.019531 -4.675781 5.117188 -6.125 3.199219 -6.125 C 1.300781 -6.125 0.394531 -4.675781 0.394531 -3.027344 C 0.394531 -1.378906 1.300781 0.078125 3.199219 0.078125 Z M 3.199219 -0.578125 C 1.863281 -0.578125 1.125 -1.609375 1.125 -3.027344 C 1.125 -4.4375 1.863281 -5.464844 3.199219 -5.464844 C 4.5625 -5.464844 5.292969 -4.4375 5.292969 -3.027344 C 5.292969 -1.609375 4.5625 -0.578125 3.199219 -0.578125 Z M 3.199219 -0.578125 "/></g></g></g><g fill="#eeba2b" fill-opacity="1"><g transform="translate(315.759659, 213.436102)"><g><path d="M 4.0625 0 L 4.0625 -0.65625 L 1.355469 -0.65625 L 1.355469 -6.042969 L 0.625 -6.042969 L 0.625 0 Z M 4.0625 0 "/></g></g></g><g fill="#eeba2b" fill-opacity="1"><g transform="translate(321.146644, 213.436102)"><g><path d="M 2.28125 0 C 4.292969 0 5.394531 -1.09375 5.394531 -3.003906 C 5.394531 -4.941406 4.300781 -6.042969 2.289062 -6.042969 L 0.625 -6.042969 L 0.625 0 Z M 1.355469 -5.386719 L 2.28125 -5.386719 C 3.683594 -5.386719 4.667969 -4.769531 4.667969 -3.003906 C 4.667969 -1.09375 3.542969 -0.65625 2.273438 -0.65625 L 1.355469 -0.65625 Z M 1.355469 -5.386719 "/></g></g></g><g fill="#eeba2b" fill-opacity="1"><g transform="translate(328.149724, 213.436102)"><g><path d="M 4.53125 0 L 4.53125 -0.65625 L 1.355469 -0.65625 L 1.355469 -2.710938 L 4.160156 -2.710938 L 4.160156 -3.359375 L 1.355469 -3.359375 L 1.355469 -5.386719 L 4.53125 -5.386719 L 4.53125 -6.042969 L 0.625 -6.042969 L 0.625 0 Z M 4.53125 0 "/></g></g></g><g fill="#eeba2b" fill-opacity="1"><g transform="translate(334.233854, 213.436102)"><g><path d="M 1.355469 0 L 1.355469 -5.300781 L 4.0625 0 L 5.125 0 L 5.125 -6.042969 L 4.40625 -6.042969 L 4.40625 -0.730469 L 1.6875 -6.042969 L 0.625 -6.042969 L 0.625 0 Z M 1.355469 0 "/></g></g></g></svg>